#define ai_width 16
#define ai_height 16
static unsigned char ai_bits[] PROGMEM = {
0x00, 0x1e, 0xfc, 0x01, 0x88, 0x08, 0x90, 0x04, 0xfe, 0x7f, 0x42, 0x40, 0x41, 0x20, 0xfe, 0x1f, 0x20, 0x00, 0xe0, 0x0f, 0x50, 0x04, 0x90, 0x02, 0x08, 0x01, 0x88, 0x06, 0x44, 0x38, 0x30, 0x10};