#define guo_width 16
#define guo_height 16
static unsigned char guo_bits[] PROGMEM = {
0x00, 0x20, 0xfe, 0x7f, 0x02, 0x24, 0xfa, 0x2f, 0x82, 0x20, 0x82, 0x20, 0x82, 0x22, 0xf2, 0x27, 0x82, 0x20, 0x82, 0x22, 0x82, 0x24, 0x82, 0x20, 0xfa, 0x2f, 0x02, 0x20, 0xfe, 0x3f, 0x02, 0x20};