#define bai_width 16
#define bai_height 16
static unsigned char bai_bits[] PROGMEM = {
0x00, 0x00, 0x00, 0x00, 0xfe, 0x1f, 0x84, 0x10, 0x84, 0x30, 0x84, 0x50, 0x84, 0x90, 0x84, 0x10, 0x84, 0x10, 0x84, 0x10, 0x84, 0x10, 0x84, 0x10, 0xfe, 0x3f, 0x00, 0x10, 0x00, 0x00, 0x00, 0x00};
