#define bian_width 16
#define bian_height 16
static unsigned char bian_bits[] PROGMEM = {
0x00, 0x01, 0x00, 0x02, 0xff, 0x0f, 0x00, 0xf0, 0x01, 0x00, 0xc1, 0x4f, 0xa2, 0x4a, 0x94, 0x4a, 0x88, 0x4a, 0xf4, 0x7f, 0x84, 0x4a, 0x82, 0x4a, 0x82, 0x4a, 0xc3, 0xdf, 0x02, 0x48, 0x00, 0x00};