#define chi_width 16
#define chi_height 16
static unsigned char chi_bits[] PROGMEM = {
0x20, 0x08, 0x62, 0x06, 0x84, 0x00, 0xf8, 0x3f, 0x41, 0x21, 0x42, 0x22, 0x4c, 0x3c, 0xf0, 0xa7, 0x48, 0x64, 0x44, 0x24, 0xfe, 0x27, 0x04, 0x24, 0x04, 0x24, 0xfe, 0x6f, 0x00, 0x24, 0x00, 0x00};
