#define da_width 16
#define da_height 16
static unsigned char da_bits[] PROGMEM = {
0x20, 0x00, 0x20, 0x08, 0x40, 0x10, 0x80, 0xe0, 0xbf, 0x31, 0xa2, 0x2a, 0xa2, 0x64, 0xa2, 0x28, 0xa2, 0x14, 0xa2, 0xe2, 0xbf, 0x31, 0x80, 0x28, 0xc0, 0x60, 0x60, 0x20, 0x40, 0x00, 0x00, 0x00};
