#define dai_width 16
#define dai_height 16
static unsigned char dai_bits[] PROGMEM = {
0x04, 0x08, 0x05, 0x10, 0x16, 0x20, 0xd4, 0x7f, 0x54, 0x93, 0xd6, 0x12, 0x55, 0x12, 0xfc, 0x13, 0x56, 0xe2, 0xd5, 0x32, 0x54, 0xab, 0xd4, 0x6b, 0x16, 0x24, 0x05, 0x24, 0x04, 0x0c, 0x00, 0x00};