#define ge2_width 16
#define ge2_height 16
static unsigned char ge2_bits[] PROGMEM = {
0x01, 0x01, 0xfe, 0x3f, 0x40, 0x69, 0x32, 0xa5, 0x01, 0x21, 0xfe, 0x7f, 0x00, 0x20, 0xf0, 0x27, 0x20, 0x24, 0x20, 0x24, 0xf2, 0x27, 0x01, 0x20, 0xfe, 0x3f, 0x00, 0x60, 0x00, 0x20, 0x00, 0x00};