#define ge3_width 16
#define ge3_height 16
static unsigned char ge3_bits[] PROGMEM = {
0x80, 0x40, 0xbe, 0x5e, 0xa4, 0x52, 0xa4, 0x52, 0xbe, 0x5e, 0x81, 0x40, 0xfe, 0xff, 0x81, 0x42, 0x02, 0x04, 0x0c, 0x18, 0xf0, 0xeb, 0x0c, 0x08, 0x02, 0x0a, 0x03, 0x0c, 0x02, 0x00, 0x00, 0x00};