#define guo3_width 24
#define guo3_height 24
static unsigned char guo3_bits[] PROGMEM = {
0x00, 0x00, 0x00, 0x00, 0x00, 0x03, 0x00, 0xf8, 0x0f, 0xf8, 0x0f, 0x0e, 0x38, 0x00, 0x0c, 0x30, 0x70, 0x0c, 0x30, 0x7f, 0x0c, 0x30, 0x0f, 0x0c, 0x30, 0x0c, 0x0c, 0x30, 0x7c, 0x0c, 0x30, 0x3f, 0x0c, 0x30, 0x6e, 0x0c, 0x30, 0xcc, 0x0c, 0x30, 0x8c, 0x0c, 0x30, 0xfc, 0x0d, 0xf0, 0xff, 0x0d, 0xb0, 0x01, 0x0c, 0x30, 0x00, 0x0c, 0x38, 0xfe, 0x0d, 0xf8, 0x3f, 0x0f, 0x10, 0x00, 0x0e, 0x10, 0x00, 0x0e, 0x00, 0x00, 0x04, 0x00, 0x00, 0x00};