#define kai_width 16
#define kai_height 16
static unsigned char kai_bits[] PROGMEM = {
0x10, 0x10, 0x92, 0x3e, 0x92, 0x12, 0x92, 0x12, 0xfe, 0x12, 0x40, 0x12, 0xff, 0x12, 0x40, 0x12, 0x40, 0x12, 0x7e, 0x12, 0x42, 0x12, 0x02, 0x12, 0x62, 0x51, 0x1a, 0x51, 0x86, 0x60, 0x40, 0x00};