#define mei_width 16
#define mei_height 16
static unsigned char mei_bits[] PROGMEM = {
0x40, 0x02, 0xff, 0x22, 0x14, 0x7e, 0x54, 0x01, 0xff, 0x20, 0x55, 0x7e, 0x55, 0x22, 0x75, 0x26, 0x43, 0x2a, 0xc1, 0x7f, 0x41, 0x21, 0x7f, 0x25, 0x41, 0x29, 0x41, 0x3f, 0x7f, 0x20, 0x41, 0x18};