#define mie_width 16
#define mie_height 16
static unsigned char mie_bits[] PROGMEM = {
0x08, 0x02, 0xf8, 0x3e, 0x14, 0x05, 0xa2, 0x08, 0xfc, 0x1f, 0x24, 0x12, 0x24, 0x12, 0xfc, 0x1f, 0x80, 0x02, 0xfc, 0x3f, 0x84, 0x08, 0x14, 0x05, 0x24, 0x02, 0x02, 0x45, 0xc2, 0x58, 0x31, 0x60};