#define shi_width 16
#define shi_height 16
static unsigned char shi_bits[] PROGMEM = {
0x80, 0x00, 0x81, 0x00, 0x82, 0x00, 0x84, 0x00, 0xb8, 0xfe, 0x84, 0x92, 0x82, 0x92, 0xfe, 0x92, 0x91, 0x92, 0x91, 0x92, 0xb1, 0xfe, 0x91, 0x00, 0x81, 0x00, 0x83, 0x01, 0x82, 0x00, 0x00, 0x00};
