#define sun_width 16
#define sun_height 16
static unsigned char sun_bits[] PROGMEM = {
0x80, 0x00, 0x80, 0x40, 0x02, 0x41, 0x01, 0x41, 0xfe, 0x4f, 0x20, 0x52, 0x40, 0x64, 0x80, 0x01, 0x02, 0x06, 0x01, 0x00, 0xfe, 0xff, 0x00, 0x04, 0x00, 0x02, 0x80, 0x01, 0xc0, 0x00, 0x00, 0x00};
